<svg width="40" height="40" viewBox="0 0 40 40" fill="none" xmlns="http://www.w3.org/2000/svg">
<rect x="1" y="1" width="38" height="38" rx="19" fill="#061B22"/>
<rect x="1" y="1" width="38" height="38" rx="19" stroke="url(#paint0_linear_135_2073)" stroke-width="2"/>
<g clip-path="url(#clip0_135_2073)">
<path d="M21.5947 17.7919V15.7162C21.4727 15.698 21.332 15.6799 21.1537 15.6618C20.9755 15.6527 20.816 15.6437 20.6752 15.6437C20.056 15.6437 19.5025 15.8068 19.0146 16.1241C18.5268 16.4504 18.189 16.9036 17.992 17.4928H17.8794V15.7071H15.3932V25.6689H17.9545V20.0127C17.9545 19.5776 18.0577 19.1969 18.2735 18.8615C18.4893 18.5261 18.7801 18.2633 19.146 18.082C19.5119 17.8916 19.9341 17.801 20.4032 17.801C20.4407 17.7919 21.5947 17.7919 21.5947 17.7919Z" fill="white"/>
<path d="M29.6629 15.7614V21.3723C29.6629 21.889 29.5503 22.3241 29.3158 22.6685C29.0906 23.013 28.7998 23.2759 28.4433 23.4481C28.0868 23.6203 27.7209 23.711 27.3456 23.711C26.7358 23.711 26.2385 23.5206 25.8633 23.1399C25.488 22.7592 25.3003 22.2425 25.3003 21.5989V15.7614H22.7391V21.9525C22.7391 22.7683 22.8892 23.4662 23.1988 24.0373C23.5084 24.6083 23.9306 25.0525 24.4747 25.3516C25.0189 25.6508 25.6475 25.8048 26.3605 25.8048C27.1767 25.8048 27.8616 25.6236 28.4245 25.261C28.9874 24.8984 29.3815 24.4271 29.6348 23.856H29.7474V25.6779H32.2242V15.7614H29.6629Z" fill="white"/>
<path d="M11.6215 15.7073V17.7468V15.7073H9.0509V15.1906V15.7073H11.6215Z" fill="#0A2C37"/>
<path d="M13.9201 23.5931V25.6236H12.3064C11.7247 25.6236 11.19 25.5329 10.7115 25.3426C10.1955 25.1432 9.79206 24.8259 9.49184 24.3999C9.19162 23.9738 9.04151 23.439 9.05089 22.8045V18.1817H11.6215V22.4057C11.6215 22.732 11.6778 22.9768 11.781 23.149C11.8842 23.3212 12.025 23.439 12.2032 23.5025C12.3815 23.5659 12.5691 23.5931 12.7755 23.5931H13.9107C13.9201 23.5931 13.9201 23.5931 13.9201 23.5931Z" fill="white"/>
<path d="M14.1922 15.7072H11.6216V18.1908H14.1922V15.7072Z" fill="white"/>
<path d="M11.6219 13.2234H9.05121V15.7071H11.6219V13.2234Z" fill="white"/>
</g>
<defs>
<linearGradient id="paint0_linear_135_2073" x1="0" y1="0" x2="47.8634" y2="15.139" gradientUnits="userSpaceOnUse">
<stop stop-color="#2F558B"/>
<stop offset="1" stop-color="#1BA89C"/>
</linearGradient>
<clipPath id="clip0_135_2073">
<rect width="23.4" height="13" fill="white" transform="translate(9 13)"/>
</clipPath>
</defs>
</svg>
